<?xml version="1.0" encoding="UTF-8" standalone="no"?> <svg width="100" height="100" viewBox="0 0 100 100" fill="none" xmlns="http://www.w3.org/2000/svg">
<rect width="100" height="100" fill="white"/>
<path d="M70.7806 40.4737L58.8224 50.9381C58.2927 51.4017 58.1216 52.1538 58.3988 52.8009L64.6558 67.4075C64.7988 67.7414 64.431 68.0633 64.119 67.8772L50.4715 59.738C49.8669 59.3774 49.0988 59.4471 48.569 59.9107L36.6109 70.3751C36.3375 70.6144 35.9177 70.364 35.9982 70.0098L39.5218 54.515C39.6779 53.8286 39.3742 53.1197 38.7696 52.7591L25.1221 44.6198C24.8101 44.4338 24.9185 43.9572 25.2802 43.9243L41.1054 42.4873C41.8065 42.4236 42.3869 41.9157 42.543 41.2293L46.0666 25.7345C46.1471 25.3803 46.6339 25.3361 46.7769 25.67L53.0339 40.2766C53.3111 40.9237 53.9735 41.3188 54.6746 41.2551L70.4998 39.8181C70.8615 39.7852 71.054 40.2345 70.7806 40.4737Z" stroke="black" stroke-width="1.25"/>
<path d="M57.4307 72.3428L56.38 73.2622C55.9399 73.6474 55.7978 74.2721 56.0281 74.8097L56.5779 76.0931C56.8258 76.6719 56.1882 77.2298 55.6474 76.9073L54.4484 76.1922C53.9461 75.8926 53.308 75.9505 52.8678 76.3357L51.8172 77.2551C51.3433 77.6698 50.6157 77.2358 50.7553 76.6218L51.0649 75.2604C51.1946 74.6901 50.9423 74.1012 50.44 73.8016L49.2409 73.0865C48.7001 72.764 48.888 71.9379 49.5151 71.8809L50.9055 71.7547C51.4879 71.7018 51.9701 71.2798 52.0998 70.7095L52.4094 69.3482C52.549 68.7342 53.3927 68.6576 53.6407 69.2364L54.1904 70.5197C54.4207 71.0573 54.971 71.3855 55.5534 71.3326L56.9439 71.2063C57.5709 71.1494 57.9045 71.9282 57.4307 72.3428Z" stroke="black" stroke-width="0.7"/>
<path d="M32.1987 21.8211L28.956 24.6587C28.4262 25.1223 28.2552 25.8743 28.5324 26.5215L30.2291 30.4823C30.3722 30.8162 30.0043 31.1381 29.6923 30.952L25.9916 28.7449C25.3869 28.3843 24.6189 28.4541 24.0891 28.9177L20.8464 31.7553C20.5731 31.9945 20.1533 31.7442 20.2338 31.3899L21.1893 27.1883C21.3454 26.5018 21.0417 25.7929 20.4371 25.4323L16.7363 23.2252C16.4243 23.0391 16.5327 22.5625 16.8945 22.5297L21.1858 22.14C21.8869 22.0763 22.4672 21.5684 22.6234 20.882L23.5788 16.6803C23.6594 16.3261 24.1462 16.2819 24.2892 16.6158L25.9859 20.5766C26.2631 21.2238 26.9254 21.6188 27.6266 21.5551L31.9178 21.1654C32.2796 21.1326 32.4721 21.5819 32.1987 21.8211Z" stroke="black" stroke-width="1.25"/>
<path d="M59 59H65.5" stroke="white" stroke-width="2"/>
<circle cx="58.5" cy="29.5" r="1.5" fill="black" fill-opacity="0.76"/>
<circle cx="66.5" cy="53.5" r="1.5" fill="black" fill-opacity="0.76"/>
<circle cx="22" cy="59" r="1.625" stroke="black" stroke-width="0.75"/>
<circle cx="72.5" cy="48.5" r="2" stroke="black"/>
</svg>
